# xmcd CD database file
#
# Track frame offsets:
#	150
#	19682
#	41382
#	60867
#
# Disc length: 1093 seconds
#
# Revision: 0
# Processed by: cddbd v1.5.1PL0 Copyright (c) Steve Scherf et al.
# Submitted via: CDex 1.50
#
DISCID=21044304
DTITLE=渡辺かおる - shine
DYEAR=1998
DGENRE=Anime
TTITLE0=shine
TTITLE1=スターライトルーフ
TTITLE2=shine
TTITLE3=スターライトルーフ
EXTD=YEAR: 1998
EXTT0=
EXTT1=
EXTT2=
EXTT3=
PLAYORDER=
